# xmcd CD database file
#
# Track frame offsets:
#	150
#	21459
#	53337
#
# Disc length: 1338 seconds
#
# Revision: 0
# Processed by: cddbd v1.5PL3 Copyright (c) Steve Scherf et al.
# Submitted via: CDex 1.51
#
DISCID=1b053803
DTITLE=白山洋光 - 月唱
DYEAR=2004
DGENRE=Blues
TTITLE0=月のまま
TTITLE1=JAM〜Bourbon St. Blues
TTITLE2=バーボン呑もうよ
EXTD=YEAR: 2004
EXTT0=
EXTT1=
EXTT2=
PLAYORDER=
